<?xml version="1.0" encoding="utf-8"?>
<svg viewBox="0 0 500 500" xmlns="http://www.w3.org/2000/svg">
  <rect x="0.001" width="500" height="500" style="stroke: rgb(0, 0, 0); fill: rgb(16, 20, 25);"/>
  <path d="M 126.35 70.413 L 126.35 75.245 L 124.748 75.245 L 124.748 70.431 L 120.517 62.714 L 122.264 62.714 L 125.585 68.993 L 128.943 62.714 L 130.581 62.714 Z" transform="matrix(21.043871, 0, 0, 17.095144, -2506.935547, -1044.103516)" style="fill: rgb(245, 159, 11); white-space: pre; paint-order: stroke; stroke: rgb(186, 218, 85); stroke-width: 0px;"/>
  <path d="M 138.899 72.051 L 133.939 72.051 L 132.938 75.245 L 131.382 75.245 L 135.459 62.714 L 137.479 62.714 L 141.556 75.245 L 139.9 75.245 Z M 134.349 70.74 L 138.489 70.74 L 136.432 64.043 Z" transform="matrix(21.043871, 0, 0, 17.095144, -2506.935547, -1044.103516)" style="fill: rgb(245, 159, 11); white-space: pre; paint-order: stroke; stroke: rgb(186, 218, 85); stroke-width: 0px;"/>
  <path d="M 121.564 82.399 Q 121.947 81.898 122.445 81.624 Q 122.944 81.35 123.544 81.35 Q 124.475 81.35 125.049 81.799 Q 125.623 82.248 125.887 83.063 Q 126.151 83.878 126.151 84.967 Q 126.151 86.016 125.835 86.838 Q 125.518 87.66 124.907 88.128 Q 124.297 88.597 123.399 88.597 Q 122.191 88.597 121.505 87.726 L 121.426 88.445 L 120.456 88.445 L 120.456 78.697 L 121.564 78.558 Z M 123.135 87.699 Q 124.006 87.699 124.475 87.026 Q 124.944 86.353 124.944 84.96 Q 124.944 84.049 124.759 83.445 Q 124.574 82.842 124.208 82.541 Q 123.841 82.241 123.307 82.241 Q 122.726 82.241 122.287 82.587 Q 121.848 82.934 121.564 83.356 L 121.564 86.802 Q 121.835 87.211 122.247 87.455 Q 122.66 87.699 123.135 87.699 Z" transform="matrix(21.043871, 0, 0, 17.095144, -2506.935547, -1044.103516)" style="fill: rgb(255, 0, 234); white-space: pre;"/>
  <path d="M 131.893 81.495 L 131.893 87.567 L 133.853 87.567 L 133.853 88.445 L 128.639 88.445 L 128.639 87.567 L 130.784 87.567 L 130.784 82.373 L 128.705 82.373 L 128.705 81.495 Z M 131.009 78.241 Q 131.378 78.241 131.6 78.466 Q 131.821 78.69 131.821 79.014 Q 131.821 79.35 131.6 79.578 Q 131.378 79.806 131.009 79.806 Q 130.659 79.806 130.435 79.578 Q 130.21 79.35 130.21 79.014 Q 130.21 78.69 130.435 78.466 Q 130.659 78.241 131.009 78.241 Z" transform="matrix(21.043871, 0, 0, 17.095144, -2506.935547, -1044.103516)" style="fill: rgb(255, 0, 234); white-space: pre;"/>
  <path d="M 136.295 88.445 L 136.295 81.495 L 137.239 81.495 L 137.325 82.459 Q 137.747 81.924 138.384 81.637 Q 139.021 81.35 139.622 81.35 Q 140.645 81.35 141.11 81.891 Q 141.575 82.432 141.575 83.396 L 141.575 88.445 L 140.467 88.445 L 140.467 84.214 Q 140.467 83.502 140.387 83.063 Q 140.308 82.624 140.057 82.422 Q 139.807 82.221 139.279 82.221 Q 138.869 82.221 138.51 82.399 Q 138.15 82.578 137.869 82.845 Q 137.589 83.112 137.404 83.383 L 137.404 88.445 Z" transform="matrix(21.043871, 0, 0, 17.095144, -2506.935547, -1044.103516)" style="fill: rgb(255, 0, 234); white-space: pre;"/>
</svg>